<svg class="icon" xmlns="http://www.w3.org/2000/svg" viewBox="0 0 16 16" fill="currentColor" width="16" height="16"><path d="M0 1.146C0 .513.526 0 1.175 0h13.65C15.474 0 16 .513 16 1.146v13.708c0 .633-.526 1.146-1.175 1.146H1.175C.526 16 0 15.487 0 14.854zm4.943 12.248V6.169H2.542v7.225zm1.2-8.212c0-.638-.43-1.059-1.107-1.059-.676 0-1.152.421-1.152 1.06 0 .625.463 1.058 1.107 1.058h.024c.689 0 1.128-.434 1.128-1.059m4.908 8.212V9.359c0-.216.016-.432.08-.586.173-.431.568-.878 1.232-.878.869 0 1.216.662 1.216 1.634v3.865h2.401V9.25c0-2.22-1.184-3.252-2.764-3.252-1.274 0-1.845.7-2.165 1.193v.025h-.02l.02-.025V6.169h-2.4c.03.678 0 7.225 0 7.225z"/></svg>
