<svg class="icon" xmlns="http://www.w3.org/2000/svg" viewBox="0 0 16 16" fill="currentColor" width="16" height="16"><path d="M11.19 12.195c0 .39-.317.708-.708.708H5.518a.708.708 0 0 1-.708-.708v-4.96a.708.708 0 0 1 .708-.709h4.964c.391 0 .708.317.708.708v4.961ZM8 0C3.58 0 0 3.58 0 8s3.58 8 8 8 8-3.58 8-8-3.58-8-8-8Zm3.54 12.196a1.06 1.06 0 0 1-1.06 1.061H5.52a1.06 1.06 0 0 1-1.06-1.06V7.234a1.06 1.06 0 0 1 1.06-1.061h.354v-.71a2.127 2.127 0 0 1 4.254 0v.71h.354a1.06 1.06 0 0 1 1.06 1.061v4.962ZM9.42 5.464v-.71a1.42 1.42 0 0 0-2.838 0v.71h2.838Z"/></svg>
